<?xml version="1.0" standalone="no"?><!DOCTYPE svg PUBLIC "-//W3C//DTD SVG 1.1//EN" "http://www.w3.org/Graphics/SVG/1.1/DTD/svg11.dtd"><svg t="1682997478269" class="icon" viewBox="0 0 900 900" version="1.1" xmlns="http://www.w3.org/2000/svg" p-id="3684" xmlns:xlink="http://www.w3.org/1999/xlink" width="200" height="200"><path d="M469.333333 810.666667H341.333333a42.666667 42.666667 0 0 0 0 85.333333h128a42.666667 42.666667 0 0 0 0-85.333333z m384-170.666667h-49.493333A349.013333 349.013333 0 0 0 853.333333 514.133333a42.666667 42.666667 0 0 0-14.506666-39.68 42.666667 42.666667 0 0 0-42.666667-8.106666 256 256 0 0 1-81.92 13.653333 258.56 258.56 0 0 1-258.56-256 295.68 295.68 0 0 1 4.266667-42.666667 42.666667 42.666667 0 0 0-14.933334-39.253333 42.666667 42.666667 0 0 0-42.666666-7.68A343.893333 343.893333 0 0 0 170.666667 455.68 341.333333 341.333333 0 0 0 224.853333 640H170.666667a42.666667 42.666667 0 0 0 0 85.333333h682.666666a42.666667 42.666667 0 0 0 0-85.333333z m-158.72 0H334.08a256 256 0 0 1 37.546667-399.36 343.893333 343.893333 0 0 0 343.466666 324.693333 298.666667 298.666667 0 0 0 33.706667 0A259.413333 259.413333 0 0 1 694.613333 640zM682.666667 810.666667h-42.666667a42.666667 42.666667 0 0 0 0 85.333333h42.666667a42.666667 42.666667 0 0 0 0-85.333333z" p-id="3685" fill="#333333"></path></svg>