<?xml version="1.0" standalone="no"?><!DOCTYPE svg PUBLIC "-//W3C//DTD SVG 1.1//EN" "http://www.w3.org/Graphics/SVG/1.1/DTD/svg11.dtd"><svg t="1682689236265" class="icon" viewBox="0 0 1024 1024" version="1.1" xmlns="http://www.w3.org/2000/svg" p-id="11241" xmlns:xlink="http://www.w3.org/1999/xlink" width="200" height="200"><path d="M788.48 512c0-143.36 44.373333-276.48 122.88-361.813333 3.413333-3.413333 3.413333-6.826667 3.413333-13.653334s-3.413333-10.24-6.826666-13.653333C819.2 51.2 713.386667 13.653333 600.746667 13.653333 327.68 17.066667 105.813333 238.933333 105.813333 512s221.866667 494.933333 494.933334 494.933333c112.64 0 218.453333-37.546667 307.2-109.226666 3.413333-3.413333 6.826667-6.826667 6.826666-13.653334s0-10.24-3.413333-13.653333c-75.093333-81.92-122.88-215.04-122.88-358.4z m-324.266667 256c27.306667 0 51.2 23.893333 51.2 51.2s-23.893333 51.2-51.2 51.2-51.2-23.893333-51.2-51.2 23.893333-51.2 51.2-51.2z m-17.066666-204.8c0 58.026667-44.373333 102.4-102.4 102.4s-102.4-44.373333-102.4-102.4 44.373333-102.4 102.4-102.4 102.4 44.373333 102.4 102.4z" fill="currentColor" p-id="11242"></path></svg>