<svg xmlns="http://www.w3.org/2000/svg" width="200" height="200" viewBox="0 0 1024 1024"><path fill="#F14919" d="M716.843 970.24 759.04 1024c66.603-28.843 124.843-69.12 172.843-121.643l-40.363-56.234A439.979 439.979 0 0 1 717.44 970.24h-.597zM512 947.157c-246.4 0-446.08-197.077-446.08-441.6C65.92 262.4 265.6 65.28 512 65.28s446.123 198.4 446.123 441.6c0 108.8-40.363 208.683-106.966 285.44l40.32 53.803C972.843 756.437 1024 637.397 1024 506.88 1024 225.92 794.88 0 512 0S0 226.603 0 505.6c0 280.32 229.12 506.88 512 506.88 72.96 0 142.08-14.763 204.843-42.24l-41.003-53.76c-51.2 19.2-106.24 30.677-163.84 30.677zm256-407.594c-96-79.36-227.84-89.643-332.843-151.723-32-20.437-6.314-59.52 25.686-60.8 115.157-19.2 229.077 26.88 336.597 64l6.443-113.28c-134.443-48.64-280.32-80-422.443-57.6-51.2 12.8-102.4 28.8-138.837 66.56-49.963 51.2-41.003 143.36 16.597 184.32 95.403 74.88 220.843 85.803 325.163 143.36 40.96 16.64 23.68 71.68-16.683 75.52-124.8 23.68-247.68-30.763-355.2-89.6-1.28 43.52-2.56 85.76-2.56 128 136.32 60.117 288 88.277 435.2 65.237 49.92-9.6 101.12-25.6 137.6-62.037 52.437-51.2 47.403-149.803-14.08-192H768z"/></svg>