<?xml version="1.0" encoding="utf-8"?>
<svg version="1.1" width="100" height="100" xmlns="http://www.w3.org/2000/svg">
<g id="wikipedia" fill="#333333">
	<path d="M63.4,79L51.8,51.9c-4.6,8.9-9.6,18.3-13.9,27.1c0,0-2.1,0-2.1,0c-6.6-15.4-13.5-30.7-20.1-46.2
		C14.1,29,8.7,22.9,5,23c0-0.4,0-1.4,0-2h22.8v2c-2.7,0.2-7.4,1.9-6.1,4.8c3.1,7,14.6,33.8,17.7,40.6c2.1-4.2,8.1-15.4,10.6-20.1
		c-2-4-8.2-18.8-10.2-22.5c-1.4-2.5-5.1-2.7-7.9-2.8v-2l20,0v1.8c-2.7,0.1-5.4,1.1-4.1,3.7c2.7,5.6,4.3,9.6,6.8,14.7
		c0.8-1.5,4.9-9.8,6.8-14.2c1.3-2.9-0.5-4-5.4-4.1c0-0.5,0-1.4,0-1.9c6.2,0,15.6,0,17.3-0.1v1.9C70,23,66.7,24.7,65,27.3l-8.3,17.3
		c0.9,2.3,8.9,20.1,9.7,22l17.2-39.7c-1.2-3.2-5.1-3.9-6.6-4v-2l18,0.2l0,0.1l0,1.7c-3.9,0.1-6.3,2.2-7.9,5.7
		C83.6,36.7,72.6,62.3,65.3,79L63.4,79L63.4,79z M63.4,79"/>
</g>
</svg>