<svg xmlns="http://www.w3.org/2000/svg" xmlns:xlink="http://www.w3.org/1999/xlink" width="40px" height="40px" viewBox="0 0 40 40" version="1.1">
    <title>logo</title>
    <g id="clougence" stroke="none" stroke-width="1" fill="none" fill-rule="evenodd">
        <g id="logo">
            <path d="M22.2560377,32.8867547 C20.8756604,34.2671321 18.6296226,34.2671321 17.2484906,32.8867547 L6.61830189,22.2558113 C5.23792453,20.875434 5.23792453,18.6293962 6.61830189,17.2490189 L11.5390566,12.3290189 L7.58811321,8.37883019 L2.66886792,13.2988302 C-0.889622642,16.8573208 -0.889622642,22.6482642 2.66886792,26.206 L13.2990566,36.8361887 C16.8575472,40.3946792 22.6477358,40.3946792 26.2054717,36.8361887 L31.1262264,31.9161887 L27.1767925,27.966 L22.2560377,32.8867547 Z" id="Fill-14" fill="#51459E"></path>
            <path d="M17.2486415,6.6190566 C18.6290189,5.23792453 20.8758113,5.23792453 22.2561887,6.6190566 L27.1761887,11.5390566 L31.1263774,7.58886792 L26.2056226,2.66886792 C22.6471321,-0.889622642 16.8569434,-0.889622642 13.2992075,2.66886792 L8.37845283,7.58886792 L12.3286415,11.5390566 L17.2486415,6.6190566 Z" id="Fill-16" fill="#FF7C00"></path>
            <path d="M30.8829811,9.41241509 L27.9667547,12.3286415 L23.8203396,16.4750566 L27.7705283,20.4252453 L31.9161887,16.2788302 L32.886,17.2486415 C34.2671321,18.6297736 34.2663774,20.8758113 32.886,22.2569434 L27.966,27.1761887 L31.9161887,31.1263774 L36.8361887,26.2063774 C40.395434,22.6478868 40.395434,16.8576981 36.8369434,13.2992075 L31.9161887,8.37920755 L30.8829811,9.41241509 Z" id="Fill-18" fill="#FFC223"></path>
        </g>
    </g>
</svg>