<svg t="1691636687154" class="icon" viewBox="0 0 1052 1024" version="1.1" xmlns="http://www.w3.org/2000/svg" p-id="6934" width="200" height="200"><path d="M648.220965 260.600333h-116.030616v502.799334H648.220965c117.478869 0 212.722795-112.53777 212.722795-251.399667 0-138.861897-95.243927-251.399667-212.722795-251.399667z" fill="#C81522" p-id="6935"></path><path d="M870.059235 0.085191h-712.796007c-87.150749-1.703827-157.263228 68.408652-157.263228 155.559401v712.796007c0 85.446922 70.112479 155.559401 155.559401 155.559401h712.796007c41.06223 0 80.335441-17.123461 111.089517-46.17371C1008.580366 948.77604 1025.618636 909.417637 1025.618636 866.736772V155.644592C1025.618636 70.112479 955.591348 0.085191 870.059235 0.085191z m-511.914809 608.606989c0 128.127787-103.933444 232.061231-232.061231 232.061231h-38.676872v-77.353744h38.676872c85.446922 0 154.707488-69.260566 154.707487-154.707487V183.246589h77.353744v425.445591zM648.220965 840.753411h-193.384359V183.246589h193.384359c160.159734 0 290.076539 147.210649 290.076539 328.753411S808.380699 840.753411 648.220965 840.753411z" fill="#C81522" p-id="6936"></path></svg>