<svg t="1691636813306" class="icon" viewBox="0 0 1024 1024" version="1.1" xmlns="http://www.w3.org/2000/svg" p-id="13941" width="200" height="200"><path d="M73.142857 73.142857m146.285714 0l585.142858 0q146.285714 0 146.285714 146.285714l0 585.142858q0 146.285714-146.285714 146.285714l-585.142858 0q-146.285714 0-146.285714-146.285714l0-585.142858q0-146.285714 146.285714-146.285714Z" fill="#F40009" p-id="13942"></path><path d="M505.929143 597.723429l0.877714 240.274285-168.96-121.709714 168.082286-118.491429z m11.702857 0L686.006857 716.068571l-168.374857 122.002286V597.723429z m-51.931429 78.262857a47.689143 47.689143 0 0 0-44.544 6.144 48.420571 48.420571 0 0 0-18.139428 27.794285l-0.950857 4.754286a24.429714 24.429714 0 0 1 11.702857-3.291428 23.405714 23.405714 0 0 1 11.702857 3.218285 22.528 22.528 0 0 1 13.970286-3.657143l4.900571 0.877715-1.097143 33.28-0.512 0.877714-2.048 2.340571c-2.194286 1.462857-6.582857 0.292571-7.899428-2.194285-0.804571-1.462857 0.073143-2.194286-0.658286-4.242286-0.585143-1.609143-2.194286-4.169143-4.461714-4.315429-2.633143-0.073143-4.315429 2.925714-4.534857 3.291429a8.045714 8.045714 0 0 0-0.731429 3.145143 16.749714 16.749714 0 0 0 11.190857 14.774857c5.851429 1.682286 12.141714 0 16.384-4.388571l2.121143-2.706286 1.462857-3.218286v-36.352a21.650286 21.650286 0 0 1 18.797714 2.56 22.820571 22.820571 0 0 1 23.332572 0c-1.828571 0 0-6.217143-5.558857-17.773714a27.721143 27.721143 0 0 0-5.705143-7.826286l-3.510857-3.364571a55.149714 55.149714 0 0 0-15.286857-9.654857z m131.584 20.260571h-46.08a4.388571 4.388571 0 0 0-4.388571 4.461714v42.715429c0 3.949714 3.145143 7.168 7.094857 7.168h41.910857a5.997714 5.997714 0 0 0 5.997715-5.997714v-43.739429a4.608 4.608 0 0 0-4.534858-4.608zM691.931429 466.285714l0.877714 239.689143-165.010286-118.491428 164.132572-121.197715z m11.702857 0l168.448 119.003429-168.448 120.685714V466.285714z m-371.565715 0.804572L495.616 586.605714 332.141714 705.974857V467.090286z m-13.165714 0v238.884571L152.137143 583.972571l166.765714-116.882285z m257.901714 199.387428h-3.730285a2.340571 2.340571 0 0 0-2.048 1.170286l-0.365715 1.170286v2.852571c-7.68 0.219429-12.873143 5.632-15.506285 9.216l-1.974857 3.218286h-2.194286c-0.731429 0-1.389714 0.292571-1.901714 1.024a4.388571 4.388571 0 0 0-0.804572 2.56c0 1.974857 1.243429 3.657143 2.779429 3.657143h47.616c1.462857 0 2.633143-1.316571 2.779428-2.998857 0.146286-2.048-0.438857-4.242286-4.096-4.242286h-1.536l-0.731428-1.901714c-1.389714-2.925714-5.339429-8.118857-15.872-9.947429l-0.073143-3.437714a2.340571 2.340571 0 0 0-1.170286-2.048l-1.170286-0.292572z m216.356572-109.494857h-62.829714c-0.731429 0-1.462857 0.292571-1.901715 0.804572l-0.585143 0.877714-0.219428 1.097143v56.539428c0 1.828571 0.731429 3.657143 1.974857 4.900572l2.194286 1.462857 2.706285 0.512h54.125715c1.828571 0 3.657143-0.731429 4.973714-2.048l1.536-2.267429 0.585143-2.706285V607.085714l2.779428-0.292571a21.211429 21.211429 0 0 0 9.581715-4.242286 16.603429 16.603429 0 0 0 2.998857-21.211428c-3.364571-5.632-12.214857-7.606857-15.36-8.192V559.542857a2.486857 2.486857 0 0 0-1.243429-2.194286l-1.316571-0.292571z m-502.491429-13.677714l-3.510857 3.437714a99.474286 99.474286 0 0 0-2.925714 3.510857l-6.582857 8.777143a50.176 50.176 0 0 0-4.973715 9.508572l-3.876571 9.581714-5.851429 12.434286c-1.170286 1.974857-1.901714 3.218286-2.194285 3.291428l-7.899429 1.462857a116.882286 116.882286 0 0 0-9.654857 2.413715l-5.12 1.682285c-9.508571 3.584-17.188571 7.314286-15.433143 10.752 1.682286 3.364571 11.702857 8.557714 25.892572 8.557715 16.896 0 22.674286-1.097143 25.673142-13.750858l2.779429-12.141714a23.990857 23.990857 0 0 1 5.997714-11.849143c0.438857-0.365714 3.510857-3.657143 5.412572-2.779428l2.121143 2.779428 0.146285 37.741715h5.632l-0.292571-21.650286a68.022857 68.022857 0 0 1 0.292571-7.533714l1.462857-5.705143 4.900572-12.873143a23.917714 23.917714 0 0 0 2.194286-9.874286c-1.974857-11.337143-12.653714-18.432-14.189715-17.773714z m115.565715 2.998857h-27.574858c-0.950857 0.512-2.56 0.877714-3.218285 2.194286-2.340571 4.388571-4.461714 5.632-5.12 7.460571l-15.213715 0.731429a5.705143 5.705143 0 0 0-4.534857 5.046857v49.444571a5.851429 5.851429 0 0 0 4.608 4.534857h74.678857a6.217143 6.217143 0 0 0 4.681143-4.900571v-49.956571a8.265143 8.265143 0 0 0-2.194285-2.998858 8.338286 8.338286 0 0 0-4.900572-1.974857h-11.556571l-0.731429-1.170285-4.608-5.851429-1.389714-1.243429-2.925714-1.316571z m217.965714 13.677714a26.916571 26.916571 0 0 0-13.238857 23.917715 26.916571 26.916571 0 1 0 53.76 0 26.916571 26.916571 0 0 0-40.521143-23.917715zM152.137143 335.725714l163.84 119.149715-163.84 119.076571V335.725714z m719.945143-0.877714v239.177143L707.730286 453.924571l164.425143-119.149714z m-65.316572 85.065143l-3.584 2.998857-5.851428 5.778286-2.413715 0.146285a46.372571 46.372571 0 0 0-20.699428 8.192 42.349714 42.349714 0 0 0-11.556572 14.043429 6.802286 6.802286 0 0 0 0.146286 6.729143 57.782857 57.782857 0 0 0 16.530286 16.749714 29.988571 29.988571 0 0 0 15.36 5.193143h2.413714l6.582857 5.632c3.510857 2.925714 7.460571 5.851429 9.289143 6.290286 3.657143 0.877714 4.681143-1.097143 4.681143-4.096v-11.995429l6.582857-2.998857a29.696 29.696 0 0 0 6.509714-4.681143l5.558858-5.339428c1.462857-1.243429 2.779429-1.755429 4.096-1.316572 2.56 0.877714 8.923429 9.654857 13.897142 10.532572 4.973714 0.877714 8.557714-2.194286 6.875429-7.314286l-1.462857-3.730286-3.291429-6.290286 1.828572-2.779428a20.333714 20.333714 0 0 0 3.364571-9.069714c0-4.900571-4.973714-8.777143-9.508571-6.436572L848.896 438.857143l-6.436571 6.363428c-0.950857 0.731429-1.828571 1.316571-2.56 1.316572l-2.121143-0.877714-9.508572-7.972572a20.48 20.48 0 0 0-3.584-2.194286l-7.314285-3.584 0.731428-8.777142c0-2.706286-0.073143-5.193143-0.731428-5.997715-1.462857-1.901714-6.948571 0.219429-10.459429 2.852572z m-594.651428-7.314286a18.358857 18.358857 0 0 0-15.798857 17.115429 21.211429 21.211429 0 0 0-9.142858 3.803428c-3.510857 2.633143-5.12 5.705143-5.997714 7.314286a59.026286 59.026286 0 0 0-5.12 23.04v10.605714c0.877714 5.12 4.388571 9.435429 9.069714 11.410286l3.657143 1.024h50.980572a14.262857 14.262857 0 0 0 12.214857-10.971429l-1.097143-14.701714a101.595429 101.595429 0 0 0-1.974857-12.507428 40.521143 40.521143 0 0 0-4.022857-11.556572l-2.194286-2.852571a19.163429 19.163429 0 0 0-10.825143-4.608 18.432 18.432 0 0 0-19.748571-17.188572z m106.788571-211.748571v239.981714L152.137143 318.610286l166.765714-117.76z m13.165714 0l171.739429 121.197714-171.739429 118.784V200.850286z m371.565715 0l168.448 118.272L703.634286 440.832V200.850286z m-10.825143 0v239.981714L518.582857 322.56l174.372572-121.709714z m50.541714 89.965714a36.571429 36.571429 0 0 0-17.846857 32.694857 36.571429 36.571429 0 1 0 72.996571 0 36.571429 36.571429 0 0 0-55.149714-32.621714zM276.48 275.675429c-2.194286 0.731429-3.876571 3.510857-3.876571 7.094857a11.264 11.264 0 0 0-8.777143 4.973714 12.873143 12.873143 0 0 0-9.216-4.973714c0.146286-3.364571-1.170286-5.997714-3.364572-6.875429-0.365714 0-1.609143-0.585143-2.633143 0-1.682286 0.877714-2.194286 4.388571-0.585142 8.630857a18.285714 18.285714 0 0 0-2.340572 6.436572 20.333714 20.333714 0 0 0 0.219429 7.387428l2.706285 8.850286c0.146286 0.731429 0.219429 1.462857 0.073143 2.413714a9.947429 9.947429 0 0 1-2.779428 5.558857l-15.872 28.672a9.362286 9.362286 0 0 0 4.315428 10.020572c3.218286 1.974857 7.314286 1.682286 10.24-0.585143a12.8 12.8 0 0 0 9.801143 5.997714c3.437714 0.073143 6.656-1.316571 8.996572-3.730285a13.897143 13.897143 0 0 0 10.752 3.145142 13.824 13.824 0 0 0 8.996571-5.339428c0.438857 0.292571 5.339429 3.364571 9.581714 1.243428 4.608-2.267429 5.12-8.484571 4.315429-12.214857l-0.731429-1.828571L292.571429 334.994286l-14.189715-24.649143 2.779429-11.995429c1.097143-4.388571 1.755429-6.290286 0.804571-8.777143l-2.048-3.657142a865.28 865.28 0 0 0-1.097143-1.682286c1.828571-3.876571 1.755429-7.314286 0.219429-8.411429L277.942857 275.456l-1.462857 0.146286z m386.779429 0H612.205714l-1.901714 13.970285a56.612571 56.612571 0 0 0 0.146286 14.994286c2.56 8.777143 9.216 15.579429 14.336 20.260571l10.678857 9.508572v13.092571l-15.725714 7.094857c-0.438857 0.219429-0.292571 0.950857 0.219428 0.950858h37.522286c0.292571 0 0.438857-0.438857 0.146286-0.585143l-4.681143-2.413715-8.630857-3.510857-3.949715-2.194285v-12.726858l12.873143-10.459428c5.12-3.949714 13.458286-14.921143 13.458286-24.137143l-0.292572-4.900571-1.462857-10.459429-1.682285-8.484571z m-258.194286 3.072c-0.219429 5.924571-5.778286 10.678857-12.434286 10.678857-6.875429 0-12.288-4.754286-12.580571-10.678857a58.953143 58.953143 0 0 0-19.017143 6.363428l-11.337143 6.144a2.267429 2.267429 0 0 0-1.243429 1.682286l0.073143 1.097143 9.508572 14.043428 4.608-4.681143v47.250286c0 2.633143 2.194286 4.754286 4.754285 4.754286h49.883429c2.852571 0 5.12-2.340571 5.12-5.12v-46.957714l4.681143 4.754285 8.338286-10.971428c1.389714-1.316571 1.901714-5.412571 0.073142-6.290286l-14.336-7.460571a51.785143 51.785143 0 0 0-16.091428-4.608zM202.605714 429.494857h23.552s-2.340571-10.24-11.776-10.24c-9.508571 0-11.776 10.24-11.776 10.24z" fill="#FFFFFF" p-id="13943"></path><path d="M636.562286 550.546286c9.362286-0.512 16.091429 3.657143 18.358857 5.12l-3.657143-13.019429a4.388571 4.388571 0 0 0-4.242286-3.218286h-18.432a3.876571 3.876571 0 0 0-3.730285 2.925715l-3.510858 13.385143a29.842286 29.842286 0 0 1 15.213715-5.12zM654.921143 612.937143a30.208 30.208 0 0 1-15.213714 5.12 30.281143 30.281143 0 0 1-18.432-5.12l3.657142 13.019428a4.388571 4.388571 0 0 0 4.242286 3.291429h18.432a3.876571 3.876571 0 0 0 3.803429-2.925714l3.510857-13.385143zM444.269714 671.890286H453.485714l-4.754285-7.314286zM736.329143 549.961143c-1.170286 0-2.194286-0.950857-2.194286-2.048v-10.093714c0-1.097143 1.024-2.048 2.194286-2.048h2.925714a2.194286 2.194286 0 0 1 2.194286 2.048v10.093714c0 1.097143-0.950857 2.048-2.194286 2.048h-2.925714zM759.808 549.961143a2.194286 2.194286 0 0 1-2.194286-2.194286v-12.214857a2.194286 2.194286 0 0 1 2.194286-2.194286h2.925714a2.194286 2.194286 0 0 1 2.194286 2.194286v12.214857a2.194286 2.194286 0 0 1-2.194286 2.194286h-2.925714zM783.725714 549.961143a2.267429 2.267429 0 0 1-2.340571-2.340572v-9.581714c0-1.243429 1.024-2.267429 2.340571-2.267428h3.072c1.243429 0 2.267429 1.024 2.267429 2.194285v9.654857c0 1.316571-1.024 2.267429-2.194286 2.340572h-3.145143z" fill="#F40009" p-id="13944"></path><path d="M565.248 368.420571l28.891429 22.528-28.525715 22.016 28.525715-0.146285 7.021714 22.016H582.948571l-6.436571 26.624 23.405714 4.827428 7.460572 21.065143-27.794286 3.218286-6.436571 44.763428-15.213715 9.874286-9.654857-56.539428-18.285714-1.316572-11.483429 48.274286-16.091428 9.581714-1.828572-54.857143-13.750857-1.462857-5.339428-16.822857-6.217143 8.192-8.557715 66.048-34.011428-24.283429 21.796571-6.144-4.022857-31.744-11.995428 10.093715-10.24-34.377143 23.698285-3.730286-2.779428-24.064-7.021715-1.462857-11.410285-20.772571 16.969143-5.851429 16.676571-35.547429 12.873143 34.669715 13.677714 1.755428v12.214857l20.992-4.242285-15.213714-43.300572 40.667428 17.115429-9.508571 28.891428 19.748571-4.461714 17.554286-42.642286z m-81.627429 54.198858l-6.582857 8.777142-3.437714 24.722286 20.553143-1.243428-6.217143 13.604571 20.553143-7.314286-4.608-21.357714L490.057143 435.931429l-6.436572-13.312z m71.314286 10.459428l-19.748571 6.436572-0.292572 2.048-0.950857 6.144-2.56 16.969142 23.552-4.534857v-27.062857z" fill="#FFFFFF" p-id="13945"></path></svg>