<svg t="1691636743445" class="icon" viewBox="0 0 1024 1024" version="1.1" xmlns="http://www.w3.org/2000/svg" p-id="9107" width="200" height="200"><path d="M913.63555555 1.13777778H110.36444445a109.22666667 109.22666667 0 0 0-109.22666667 109.22666667v803.2711111a109.22666667 109.22666667 0 0 0 109.22666667 109.22666667h803.2711111a109.22666667 109.22666667 0 0 0 109.22666667-109.22666667V110.36444445a109.22666667 109.22666667 0 0 0-109.22666667-109.22666667zM288.91591111 255.67004445c33.71235555 0 61.17831111 25.03111111 61.17831111 55.88764444s-27.46595555 55.84213333-61.17831111 55.84213333c-34.06506667 0-61.49688889-25.13351111-61.49688889-55.84213333 0.13653333-31.11822222 27.4432-55.88764445 61.49688889-55.88764444z m51.05208889 335.73546666c-16.19057778 50.8928-12.04906667 32.06257778-76.3904 174.08L170.66666667 706.46897778s103.98151111-96.03982222 125.15555555-139.94666667c22.67591111-46.2848-25.13351111-70.94044445-25.13351111-70.94044444l-71.38417778-45.13564445 38.82097778-60.52977777c53.71448889 40.68693333 57.69671111 43.99786667 93.9008 81.03253333 28.11448889 28.89955555 24.50773333 68.55111111 7.94168889 120.45653333z m506.31111111 66.26417778C828.15431111 830.78257778 606.43555555 766.28195555 606.43555555 766.28195555l12.04906667-49.6071111 51.41617778 11.11608888c94.87928889 6.09848889 85.65191111-78.04017778 85.65191111-78.04017778V404.92373333c0.65991111-93.0816-86.14115555-102.79822222-242.19875556-46.12551111l36.19271112 10.08071111c-2.94684445 10.74062222-14.72284445 27.76177778-29.93493334 46.25066667h208.78222222v42.97386667h-117.30488888v53.5552h117.02044444v42.97386666H611.08906667v89.74791112a159.19786667 159.19786667 0 0 0 47.88906666-24.6328889l-10.24-39.00302222L704 563.2l46.12551111 114.39217778-67.98222222 28.75164444L670.15111111 660.74168889c-30.42417778 23.66577778-93.40017778 57.856-203.66222222 54.73848889-117.52106667 3.11751111-87.25617778-134.73564445-87.25617778-134.73564445l2.94684444-1.46773333h82.81884445c-0.64853333 17.70382222-7.73688889 46.64888889 1.97973333 62.31608889 8.11235555 12.87964445 28.7744 15.0528 41.82471112 15.92888889a40.37973333 40.37973333 0 0 0 4.46008888 0.17066667v-102.85511112H393.5232v-42.93973333h119.68284445v-53.54382222h-31.07271112c-26.94257778 28.91093333-51.58684445 53.05457778-51.58684444 53.05457777l-36.20408889-32.06257777c25.79342222-27.59111111 51.41617778-71.22488889 67.28817778-100.12444445-12.87964445 5.29066667-26.16888889 11.11608889-39.82222223 17.06666667a563.72337778 563.72337778 0 0 1-45.76142222 52.33777778c0.65991111 0.86471111-59.33511111-34.13333333-59.33511111-34.13333333 61.83822222-53.5552 96.51768889-168.39111111 96.51768889-168.39111112l86.1184 24.4736s-6.92906667 17.06666667-21.82257778 42.97386667C821.68035555 214.38008889 841.95555555 374.08995555 841.95555555 374.08995555s22.36871111 110.3872 4.36906667 283.5456z" fill="#FF6200" p-id="9108"></path></svg>